<svg xmlns="http://www.w3.org/2000/svg" viewBox="0 0 32 32" role="img" aria-label="Galeida">
  <rect width="32" height="32" rx="7" fill="#db2777" />
  <path
    fill="#ffffff"
    d="M20.2 11.4c0-2.6-2.2-4.6-5.1-4.6-3.1 0-5.6 2.3-5.6 5.2 0 2.4 1.6 4.4 3.9 5.1-2.8.6-4.6 2.8-4.6 5.5 0 3.4 2.9 6 6.9 6 2.6 0 4.9-1 6.2-2.7l-1.6-1.2c-.9 1.2-2.3 1.9-3.9 1.9-2.4 0-4.1-1.6-4.1-3.6 0-2 1.7-3.4 4.2-3.4h3.8v-2.2h-3.6c-2.1 0-3.7-1.5-3.7-3.4 0-1.9 1.6-3.3 3.8-3.3 2 0 3.5 1.3 3.5 3 0 .5-.1 1-.3 1.4h2.4Z"
  />
</svg>
